<svg id="e41c8312-d49a-435d-993b-13b791973daa" data-name="Layer 1" xmlns="http://www.w3.org/2000/svg" xmlns:xlink="http://www.w3.org/1999/xlink" viewBox="0 0 146 162">
  <defs>
    <style>
      .a6df053c-34af-48cc-8418-5df0dbe9bd4f {
        opacity: 0.91;
      }

      .eeb29ee3-feaa-477d-923d-47a319cc2639 {
        fill: #008cc9;
      }

      .b48dba69-e968-4473-aa90-d21eb3c97c13 {
        fill: #303841;
      }

      .b0af2a47-6901-4cf2-a5bf-6dee445d33e9 {
        fill: none;
      }

      .be85d908-fe4e-4c80-bba3-cfa0c1b1d7dc {
        fill: #fff;
        stroke: #000;
        stroke-miterlimit: 10;
      }
    </style>
  </defs>
  <title>logo-for-animation</title>
  <g>
    <image class="a6df053c-34af-48cc-8418-5df0dbe9bd4f" width="146" height="162" xlink:href="logo-for-animation1.png"/>
    <polygon class="eeb29ee3-feaa-477d-923d-47a319cc2639" points="21.66 51.3 21.66 111 73 140.78 124.33 111.14 124.33 51.3 72.78 21.23 21.66 51.3"/>
  </g>
  <path class="b48dba69-e968-4473-aa90-d21eb3c97c13" d="M48.67,80v50l10.75,6.24L72.6,108.87Zm51.1-39.75-8.56,5,7.1,10.23,6.06-12.58Zm-10.28,6-40.82,24v6.54l24.89,30.06L97.31,57.55Zm9.13,13.17L75,108.58l14.74,17.8L114,81.58Zm0,0L75,108.58l14.74,17.8L114,81.58Zm30.7-2-13,24,26.31,37.93,8.71-16.26V70.29Zm13.53,65.76-9.18,17.14,15-8.69Zm-52.8,6.73-9.93,18.31L100,159.77,110,154ZM74,110.57,61.14,137.24l17.25,10,10.28-19Zm41.25-27.15L91.07,128l20.67,25,18.64-10.76,11.18-20.86Zm28.66,37.81,6.53,9.43h0l.89-.52V107.36ZM98.62,59.44,75,108.58l14.74,17.8L114,81.58Zm0,0L75,108.58l14.74,17.8L114,81.58Zm7.49-15.53L99.62,57.37l15.43,22.24L127.6,56.44Z" transform="translate(-27 -19)"/>
  <line class="b0af2a47-6901-4cf2-a5bf-6dee445d33e9" x1="79.1" y1="24.91" x2="77.37" y2="23.9"/>
  <line class="b0af2a47-6901-4cf2-a5bf-6dee445d33e9" x1="64.21" y1="26.25" x2="62.49" y2="27.27"/>
  <path class="be85d908-fe4e-4c80-bba3-cfa0c1b1d7dc" d="M48.67,70.29" transform="translate(-27 -19)"/>
</svg>
