<svg id="e841a7af-108c-4982-b5b9-b04a66cdf59b" data-name="Layer 1" xmlns="http://www.w3.org/2000/svg" viewBox="0 0 102.67 119.55">
  <defs>
    <style>
      .a7322b31-778a-43a1-975b-a5c4643ec86c {
        fill: #fff;
      }

      .bada49ba-83c4-4d3f-a7bd-4433c85e1ce7 {
        fill: #303841;
      }

      .f26596af-c50e-47ac-b193-546f1609401a {
        fill: none;
      }
    </style>
  </defs>
  <title>logo-WITH-BG</title>
  <polygon class="a7322b31-778a-43a1-975b-a5c4643ec86c" points="0 30.07 51.11 0 102.67 30.07 102.67 89.92 51.33 119.55 0 89.78 0 30.07"/>
  <path class="bada49ba-83c4-4d3f-a7bd-4433c85e1ce7" d="M48.67,80v50l10.75,6.24L72.6,108.87Zm51.1-39.75-8.56,5,7.1,10.23,6.06-12.58Zm-10.28,6-40.82,24v6.54l24.89,30.06L97.31,57.55Zm9.13,13.17L75,108.58l14.74,17.8L114,81.58Zm0,0L75,108.58l14.74,17.8L114,81.58Zm30.7-2-13,24,26.31,37.93,8.71-16.26V70.29Zm13.53,65.76-9.18,17.14,15-8.69Zm-52.8,6.73-9.93,18.31L100,159.77,110,154ZM74,110.57,61.14,137.24l17.25,10,10.28-19Zm41.25-27.15L91.07,128l20.67,25,18.64-10.76,11.18-20.86Zm28.66,37.81,6.53,9.43h0l.89-.52V107.36ZM98.62,59.44,75,108.58l14.74,17.8L114,81.58Zm0,0L75,108.58l14.74,17.8L114,81.58Zm7.49-15.53L99.62,57.37l15.43,22.24L127.6,56.44Z" transform="translate(-48.67 -40.23)"/>
  <line class="f26596af-c50e-47ac-b193-546f1609401a" x1="57.44" y1="3.69" x2="55.71" y2="2.68"/>
  <line class="f26596af-c50e-47ac-b193-546f1609401a" x1="42.55" y1="5.03" x2="40.83" y2="6.05"/>
</svg>
